<svg version="1.1" xmlns="http://www.w3.org/2000/svg" xmlns:xlink="http://www.w3.org/1999/xlink" width="332.37874" height="353.03901" viewBox="0,0,332.37874,353.03901"><g transform="translate(-73.81063,-3.4805)"><g data-paper-data="{&quot;isPaintingLayer&quot;:true}" fill="#000000" fill-rule="nonzero" stroke="none" stroke-width="1" stroke-linecap="butt" stroke-linejoin="miter" stroke-miterlimit="10" stroke-dasharray="" stroke-dashoffset="0" style="mix-blend-mode: normal"><path d="M138.28861,5.28386c1.13997,-0.80754 1.95365,-1.86981 3.44942,-1.8001c0,0.40986 0.08809,0.70729 -0.01258,0.9118c-6.69198,13.59452 -4.16989,27.03508 1.15165,40.17639c7.67634,18.95639 20.77672,33.75049 36.67056,46.30386c10.90396,8.61223 23.03127,15.36686 34.52824,23.07637c15.91357,10.67114 29.60459,23.47099 39.80449,39.83697c17.56179,28.17829 17.68481,63.6205 -1.80481,89.29893c-10.3881,13.68678 -24.14516,23.02688 -40.15278,29.09113c-7.44417,2.82011 -15.00702,5.34072 -22.37673,8.3395c-6.84473,2.78519 -12.82423,6.78275 -15.73459,14.07951c-0.20045,0.50256 -0.3916,1.01284 -0.53121,1.5345c-0.11313,0.42271 -0.14218,0.86794 -0.29304,1.85797c8.59753,-8.59071 19.16058,-12.54348 29.90906,-16.06223c6.79511,-2.22456 13.57809,-4.47367 20.27399,-6.97755c19.42524,-7.26383 36.94929,-17.52031 51.11483,-32.92239c9.8917,-10.7552 17.0693,-23.01089 18.90585,-37.74419c2.52958,-20.29322 -3.8033,-37.11668 -20.51225,-49.50601c-6.10087,-4.52364 -11.60227,-9.56948 -15.19162,-16.3813c-4.62123,-8.77008 -5.09109,-17.75403 -1.21506,-26.9288c0.39834,-0.94287 1.45744,-1.98043 0.4806,-2.96182c-0.84193,-0.84587 -2.05735,-0.27255 -3.09975,-0.02449c-19.51716,4.64444 -39.75831,-5.91101 -47.43165,-26.81598c-0.12541,-0.34166 -0.20765,-0.69369 0.40574,-1.16428c11.21061,15.02395 26.49893,18.66787 44.12334,15.41927c-2.83695,-1.19724 -5.92411,-0.9612 -8.89606,-1.23144c-18.60481,-1.69182 -33.70341,-15.37667 -36.12228,-33.86492c-1.51201,-11.55661 0.85701,-22.52457 8.23747,-31.98836c0.53309,-0.68358 0.92769,-1.56504 2.34601,-1.91814c-5.76158,13.94616 -3.09834,26.32538 6.46203,37.31175c5.54149,6.36804 12.63365,10.32257 21.41301,12.68004c-1.07761,-1.76481 -2.35691,-2.24798 -3.41257,-2.95465c-7.11158,-4.76058 -12.46828,-10.78773 -13.82541,-19.56752c-1.09088,-7.05731 1.00194,-13.05792 6.46795,-17.76387c0.94835,-0.81647 1.95165,-1.62132 3.29723,-1.73073c0.65879,0.74063 0.11492,1.40636 -0.12911,2.01678c-3.09474,7.7414 -1.25469,14.61019 3.95228,20.67282c6.66172,7.75648 15.6516,11.11427 25.43479,12.72167c4.73467,0.77792 9.51535,1.03601 14.3186,1.15253c12.10973,0.29377 24.29845,0.28793 36.03266,3.80869c19.42128,5.82722 32.63611,17.82975 36.95883,38.29985c0.40927,1.93808 0.92427,3.95389 0.77447,5.88587c-0.21146,2.72722 1.12924,3.80812 3.3312,4.78683c7.43722,3.30563 15.00861,6.37861 21.61218,11.28949c0.70855,0.52696 1.5161,0.95098 1.95079,1.96765c-0.95482,0.79761 -1.91825,0.31222 -2.84021,0.2379c-8.07658,-0.65104 -16.0746,-0.71538 -23.79633,2.3926c-9.22336,3.71238 -15.04822,12.09129 -15.39588,22.02924c-0.26688,7.62856 0.50875,15.17673 1.39313,22.71707c2.38321,20.31894 -0.96098,39.29256 -12.86521,56.34452c-3.44782,4.93872 -7.79946,9.03119 -12.04457,13.23115c-0.3103,0.30697 -0.6565,0.63262 -1.50718,0.26463c13.01645,-17.20953 14.83867,-36.11512 8.1304,-56.10549c-2.63109,-7.84049 -7.60897,-15.03381 -11.8961,-17.93225c0.66246,1.56761 1.11461,2.81118 1.69725,3.99023c8.99436,18.20026 9.35383,36.68147 0.74576,54.94579c-8.87418,18.82895 -23.8254,31.88062 -42.11522,41.23094c-13.23344,6.76528 -27.26759,11.15329 -42.05226,12.96632c-5.29381,0.64917 -10.62671,0.82361 -16.18721,0.78116c4.83624,3.38696 21.94879,6.51189 35.36,6.6644c12.01681,0.13663 23.92519,-0.78112 35.7498,-2.94109c-19.74118,7.4733 -40.12845,9.56055 -61.06112,7.43321c4.71847,1.35656 9.56603,1.99125 14.41974,2.51655c7.11911,0.77048 14.27294,0.69838 21.42287,0.65384c13.10805,-0.0816 25.90396,-2.3014 38.54318,-5.59452c17.20497,-4.48271 33.48169,-11.08265 48.12366,-21.33243c11.40509,-7.98389 20.03105,-18.5005 27.14512,-30.32411c10.35769,-17.21449 13.79462,-36.06494 12.1909,-55.81527c-1.09157,-13.44365 -6.12192,-25.79399 -12.50723,-37.59259c-2.29049,-4.23232 -5.08048,-8.13386 -7.79722,-12.08805c-0.48114,-0.70025 -1.32884,-1.27262 -1.14668,-2.29161c0.39077,-0.35018 0.72086,-0.16774 0.99338,0.06506c14.18845,12.12055 25.24444,26.5871 32.83777,43.6775c6.7565,15.20695 10.13156,31.14639 9.64909,47.73886c-0.84352,29.01038 -10.44248,54.65168 -30.26663,76.21129c-16.47148,17.91336 -37.015,28.94572 -59.95019,36.153c-21.46893,6.74659 -43.46412,9.52102 -65.86605,8.63661c-23.5404,-0.9294 -46.6206,-4.56685 -68.43369,-14.06313c-10.91936,-4.75368 -21.49513,-10.10049 -29.68581,-19.10489c-9.92997,-10.91652 -14.23388,-23.3808 -10.06552,-38.00122c2.16247,-7.5847 6.99807,-13.35783 12.97077,-18.32981c8.43291,-7.02 18.51618,-10.44221 28.78849,-13.5023c7.53922,-2.24592 15.22337,-4.04011 22.53499,-7.00152c7.81829,-3.16658 14.65847,-7.8417 20.6495,-13.76631c0.44653,-0.44158 0.82699,-0.95596 1.19829,-1.46553c0.24386,-0.33467 0.41596,-0.72158 0.96202,-1.69355c-3.92993,2.46282 -7.20926,4.67108 -10.6297,6.63348c-11.50077,6.59845 -24.04318,9.86978 -37.13018,11.18134c-14.56573,1.45976 -29.24291,1.94502 -43.48521,5.90268c-13.07726,3.63392 -24.86641,9.48931 -34.26094,19.45736c-9.01637,9.56681 -13.57726,20.79456 -11.76333,34.16031c0.0772,0.56888 0.39361,1.23522 -0.43699,1.93752c-1.81102,-2.43317 -2.91292,-5.16766 -3.71161,-7.98147c-7.9213,-27.90677 6.29429,-55.39518 36.19113,-61.11426c8.85292,-1.69355 17.84337,-1.1329 26.77243,-0.01556c8.8782,1.111 17.63974,3.30725 26.61365,3.44537c15.62533,0.24052 29.16337,-5.41542 41.03319,-15.35129c6.07364,-5.08405 11.56305,-10.67192 14.76053,-18.29076c-1.09056,1.0628 -2.16407,2.14385 -3.27629,3.18348c-1.18969,1.11203 -2.4097,2.19197 -3.62716,3.2739c-13.00998,11.56174 -28.46242,17.35932 -45.57914,18.8867c-18.56599,1.65668 -36.65087,-0.68154 -54.04449,-7.56798c-13.66332,-5.40955 -24.86445,-13.97198 -33.07421,-26.2685c-0.48952,-0.73319 -1.2236,-1.35455 -1.27106,-2.33988c0.57183,-0.62593 1.0211,-0.09974 1.39456,0.19181c11.25141,8.78391 24.20422,13.60695 38.04065,16.3846c18.40879,3.69553 36.67169,3.62286 54.63758,-2.38002c8.08555,-2.70159 15.2041,-7.16091 21.58012,-12.80105c0.64221,-0.56811 1.52146,-1.04192 1.42241,-2.84511c-16.52012,8.92309 -33.93429,13.77988 -52.45412,13.64267c-18.41188,-0.1364 -36.05543,-3.5162 -51.59782,-14.27832c15.16256,4.44483 30.32783,8.5998 46.42931,6.95844c-4.45854,-0.79147 -8.9497,-1.43393 -13.36994,-2.40064c-17.75867,-3.8838 -33.85333,-11.02922 -46.76594,-24.27359c-9.16787,-9.40346 -15.05796,-20.50651 -17.2872,-33.48702c-0.14563,-0.84785 -0.51506,-1.74961 -0.05993,-2.62094c0.65276,-0.15833 0.7976,0.3298 0.99706,0.71287c5.41173,10.393 14.02591,17.59024 23.68639,23.74361c14.49877,9.23522 30.44449,14.07501 47.4745,15.60286c16.02223,1.43743 31.37601,-0.99693 45.92451,-8.00965c0.94718,-0.45657 2.06244,-0.71987 2.61458,-1.80111c-0.66552,-1.25697 -1.55383,-0.51612 -2.33813,-0.28861c-12.07648,3.50308 -24.38443,5.3638 -36.96871,4.83903c-21.04999,-0.87781 -40.39409,-6.80942 -57.27243,-19.80575c-2.7343,-2.10543 -5.1983,-4.50755 -7.53543,-7.03712c-0.58671,-0.63501 -1.42433,-1.17956 -1.29591,-2.47392c1.76521,0.01173 2.87297,1.28459 4.10339,2.16596c7.67607,5.49858 15.62486,10.50656 24.46112,13.96868c9.66487,3.78678 19.60018,6.30194 30.06287,6.38601c-6.13999,-1.98353 -12.43808,-3.39959 -18.50587,-5.6274c-17.41544,-6.3941 -31.80896,-16.64123 -42.14424,-32.28052c-7.97655,-12.07009 -10.78099,-25.32279 -9.40925,-39.58438c0.09292,-0.96612 0.43976,-1.90782 0.64802,-2.77543c0.77561,-0.21284 1.00247,0.21327 1.11035,0.63675c3.66373,14.38121 12.68933,25.01151 23.96594,33.9904c15.03023,11.96766 32.47905,18.34396 51.16806,21.76377c4.63053,0.84732 9.31941,0.83482 14.02233,1.07718c-1.60432,-1.2481 -3.54494,-1.37338 -5.36662,-1.78861c-13.35437,-3.04401 -26.53758,-6.63437 -38.54692,-13.4491c-12.51695,-7.10275 -22.8616,-16.51024 -29.73139,-29.37086c-0.43445,-0.81331 -1.27298,-1.58841 -0.58129,-3.25693c12.66852,16.31277 28.02482,28.53478 47.75224,34.58743c-5.64704,-3.70835 -11.59749,-6.95007 -17.00134,-11.05102c-14.89949,-11.30712 -25.3004,-25.63593 -28.66803,-44.26749c-2.02176,-11.18541 -0.46161,-22.17724 4.34886,-32.5932c0.18535,-0.40137 0.34776,-0.84475 0.94429,-0.90546c0.70525,0.20157 0.54049,0.82428 0.48377,1.31712c-1.22866,10.67609 1.63461,20.48072 6.75418,29.64486c9.95746,17.8241 24.81524,30.4355 42.91488,39.45205c6.15764,3.06752 12.37886,5.99581 19.01879,7.91763c1.1053,0.31993 2.17021,0.76609 3.52989,0.16992c-0.9538,-1.34544 -2.33421,-1.56164 -3.52728,-2.0824c-12.92666,-5.64245 -25.29393,-12.22817 -35.4988,-22.17584c-10.26652,-10.0078 -18.57003,-21.27505 -21.59865,-35.70052c-0.63068,-3.00392 -1.16008,-6.00568 -0.3337,-9.34334c5.712,24.27974 20.49426,41.28673 41.70233,53.65744c0.49828,-1.71736 -0.57193,-1.87618 -1.12184,-2.29843c-11.50062,-8.8307 -21.43612,-19.11555 -27.4672,-32.43143c-8.45927,-18.6771 -9.15078,-37.40953 1.52856,-55.66915c2.49748,-4.27023 5.97678,-7.71716 9.95421,-10.93677M326.74443,127.68373c0.20769,1.00203 -0.69035,1.17997 -1.23231,1.54319c-4.05377,2.71685 -6.41702,6.5853 -7.49456,11.23662c-0.39438,1.70239 -0.90657,3.546 0.22287,5.73625c2.77932,-5.72476 6.60976,-9.91163 11.83672,-12.83723c5.23803,-2.93176 10.96285,-3.97514 16.8638,-4.43775c0,-0.64963 0.04427,-1.00925 -0.00759,-1.35441c-0.24152,-1.60793 -0.4374,-3.22743 -0.77962,-4.81476c-3.04985,-14.14633 -11.09082,-24.19262 -25.05699,-28.4402c-14.11632,-4.29324 -27.56086,-1.69164 -39.43157,6.91764c-8.08294,5.86217 -12.74646,14.02216 -12.22745,24.43547c0.17353,3.48219 0.90557,6.85977 3.47454,10.45708c0.19787,-5.01649 0.26121,-9.24561 1.99795,-13.21083c1.8294,-4.17677 5.57826,-8.77584 8.36212,-9.70348c-3.85136,6.0546 -4.97905,12.39747 -3.54419,19.11165c1.42129,6.65068 4.94316,11.95706 10.52874,15.88859c-0.43319,-2.46422 -1.3578,-4.71762 -1.88542,-7.0604c-0.51696,-2.29541 -1.6075,-4.63096 -0.60141,-7.50172c5.31086,16.60729 19.67482,25.04415 30.34512,36.60152c-1.37344,-3.04881 -3.0897,-5.87825 -4.57355,-8.82473c-2.9696,-5.8969 -5.01313,-11.97181 -3.75961,-18.78c1.59663,-8.67156 8.32283,-14.91106 16.96239,-14.9625M343.58674,305.98904c-18.39251,12.40944 -39.0966,18.55524 -60.6767,22.20868c-16.58702,2.80814 -33.27583,3.17968 -50.03807,1.72012c-14.4545,-1.25861 -28.70361,-3.44974 -42.48582,-8.15132c-2.8018,-0.95584 -5.61506,-1.87819 -8.42303,-2.81597c1.17685,1.26401 2.46397,2.25471 3.80564,3.16509c1.27142,0.86279 2.57448,1.68582 3.90729,2.45026c18.5371,10.63173 38.82002,14.49036 59.85875,15.23091c8.40843,0.29594 16.83595,0.27394 25.22558,-0.55183c9.09612,-0.89536 18.12072,-2.11219 26.77273,-5.35832c17.32418,-6.49985 32.81644,-15.98867 46.63767,-28.23944c4.1528,-3.68094 7.61053,-8.01821 11.21687,-12.22394c-4.96854,4.38131 -10.08658,8.53537 -15.80088,12.56577M205.10889,261.47306c1.13924,-0.44061 2.27849,-0.8812 3.41774,-1.32181c-9.12574,2.78774 -18.39558,4.87923 -27.45144,7.70418c-8.65253,2.69913 -16.78095,6.25784 -23.0238,13.16143c-3.00975,3.32827 -5.24071,7.06871 -5.64337,9.69698c5.54867,-10.2525 14.49167,-16.24907 24.92285,-20.37557c8.92514,-3.53069 18.3085,-5.64665 27.77802,-8.86522z"/><path d="M336.76963,275.52771c-7.42436,5.76699 -15.72459,9.62246 -23.87711,13.7357c-0.39662,0.20007 -0.76751,0.48117 -1.42487,0.20451c0.06745,-1.25532 1.19871,-1.61433 1.99837,-2.17029c13.22989,-9.19747 24.38534,-20.49169 33.25686,-33.89584c10.07594,-15.22389 16.71083,-31.8758 18.35249,-50.17703c1.12222,-12.5109 0.38581,-24.94945 -3.87238,-36.95878c-0.25677,-0.72421 -0.80012,-1.43554 -0.35188,-2.31238c1.17351,0.10816 1.31952,1.15531 1.73769,1.87798c4.95434,8.56224 8.04037,17.80622 9.31257,27.57014c2.29666,17.62586 0.10942,34.65119 -7.94026,50.66096c-6.37723,12.68349 -15.58195,23.00563 -27.19148,31.46502z"/><path d="M307.31704,269.38884c9.69446,-6.18612 18.10229,-13.55619 25.57078,-22.03177c7.43686,-8.43963 13.43652,-17.80206 17.84778,-28.13387c1.0804,0.47621 0.85103,1.05601 0.77518,1.56906c-3.14635,21.28944 -13.95874,37.88889 -30.98344,50.70606c-14.76496,11.11592 -31.74198,16.62382 -49.68092,19.76835c-6.41791,1.12493 -12.87649,1.89498 -19.3485,2.58486c-0.8797,0.09375 -1.79659,0.29471 -3.38684,-0.64442c21.39793,-4.68712 41.03754,-12.22275 59.20595,-23.81825z"/><path d="M278.6914,225.52128c-4.72713,7.35671 -10.71363,13.25406 -17.4178,18.55335c18.3504,-26.57853 24.68161,-54.4839 10.08328,-85.03322c3.26729,3.14408 6.23135,6.46167 8.57008,10.27163c11.60718,18.90902 10.12734,37.58018 -1.23556,56.20825z"/><path d="M334.21618,113.08137c0.36889,0.82014 0.64516,1.46771 1.05622,2.43115c-3.80994,0.25706 -7.07452,1.89398 -10.63233,2.29107c-4.16589,0.46497 -8.45835,-2.7225 -8.78378,-7.04274c-0.19833,-2.63315 -1.51432,-3.84458 -3.50414,-4.86727c-2.78659,-1.4322 -5.57936,-2.85241 -8.31955,-4.25224c0.03886,-0.96681 0.69323,-0.84568 1.18554,-0.85934c4.70016,-0.13048 9.3842,0.1737 14.04858,0.69917c7.22826,0.81425 12.07581,4.79542 14.94945,11.60019z"/></g></g></svg>